<svg id="svg1144" enable-background="new 0 0 512 512" height="512" viewBox="0 0 512 512" width="512" xmlns="http://www.w3.org/2000/svg" xmlns:svg="http://www.w3.org/2000/svg"><g id="layer2"><path id="path836" d="m16.52.606c-8.823 0-15.914 7.215-15.914 16.038v419.371c0 42.132 34.062 75.824 75.824 75.824h359.461c44.081 0 75.949-35.808 75.949-75.824 0 0 0-109.17 0-163.755 0-8.872-7.166-16.038-16.038-16.038h-103.783v-239.577c0-8.424-6.773-16.038-16.413-16.038h-359.086zm79.974 111.801h199.638c21.322 0 21.322 31.983 0 31.983h-199.638c-21.322.001-21.322-31.983 0-31.983zm0 79.974h199.638c21.374 0 21.374 31.952 0 31.952h-199.638c-21.223 0-21.223-31.952 0-31.952zm0 79.818h199.638c21.374 0 21.374 31.983 0 31.983h-199.638c-21.223 0-21.223-31.983 0-31.983zm295.525 15.976h87.868v147.841c0 24.604-19.819 43.872-43.997 43.872-24.177 0-43.872-19.268-43.872-43.872v-147.841zm-295.525 63.873h199.638c21.374 0 21.374 31.952 0 31.952h-199.638c-21.223 0-21.223-31.952 0-31.952z"/></g></svg>