<svg id="bold" enable-background="new 0 0 24 24" height="512" viewBox="0 0 24 24" width="512" xmlns="http://www.w3.org/2000/svg"><path d="m23 22v-12.5c0-.2-.119-.381-.303-.46l-7-3c-.155-.067-.332-.051-.472.042-.141.093-.225.25-.225.418v15.5h-1v-21.25c0-.247-.121-.478-.324-.618-.204-.14-.462-.171-.693-.083l-10.5 4c-.291.111-.483.39-.483.701v17.25h-1c-.552 0-1 .447-1 1s.448 1 1 1h22c.552 0 1-.447 1-1s-.448-1-1-1zm-3-9.25c0-.414.336-.75.75-.75s.75.336.75.75v1.5c0 .414-.336.75-.75.75s-.75-.336-.75-.75zm0 6c0-.414.336-.75.75-.75s.75.336.75.75v1.5c0 .414-.336.75-.75.75s-.75-.336-.75-.75zm-3.5-6c0-.414.336-.75.75-.75s.75.336.75.75v1.5c0 .414-.336.75-.75.75s-.75-.336-.75-.75zm0 6c0-.414.336-.75.75-.75s.75.336.75.75v1.5c0 .414-.336.75-.75.75s-.75-.336-.75-.75zm-7-12c0-.414.336-.75.75-.75s.75.336.75.75v1.5c0 .414-.336.75-.75.75s-.75-.336-.75-.75zm0 6c0-.414.336-.75.75-.75s.75.336.75.75v1.5c0 .414-.336.75-.75.75s-.75-.336-.75-.75zm0 6c0-.414.336-.75.75-.75s.75.336.75.75v1.5c0 .414-.336.75-.75.75s-.75-.336-.75-.75zm-4.5-12c0-.414.336-.75.75-.75s.75.336.75.75v1.5c0 .414-.336.75-.75.75s-.75-.336-.75-.75zm0 6c0-.414.336-.75.75-.75s.75.336.75.75v1.5c0 .414-.336.75-.75.75s-.75-.336-.75-.75zm0 6c0-.414.336-.75.75-.75s.75.336.75.75v1.5c0 .414-.336.75-.75.75s-.75-.336-.75-.75z"/></svg>