<?xml version="1.0"?>
<svg xmlns="http://www.w3.org/2000/svg" xmlns:xlink="http://www.w3.org/1999/xlink" xmlns:svgjs="http://svgjs.com/svgjs" version="1.1" width="512" height="512" x="0" y="0" viewBox="0 0 329.013 329.013" style="enable-background:new 0 0 512 512" xml:space="preserve"><g>
<g>
	<path d="M112.739,113.054c1.027,0.7,2.232,1.07,3.486,1.07h0.015c3.424,0,6.209-2.784,6.209-6.206c0-0.594-0.083-1.179-0.247-1.746   c-3.575-15.656-1.881-28.265,5.034-37.478c8.149-10.857,11.758-24.788,9.655-37.264c-1.857-11.056-7.801-20.246-17.184-26.571   c-2.077-1.405-4.932-1.394-7.003,0.031c-2.112,1.456-3.103,4.014-2.521,6.531c3.86,16.472,0.35,26.907-8.453,42.743   c-5.482,9.86-7.721,20.937-6.305,31.189C97.029,96.947,103.025,106.532,112.739,113.054z" fill="#ffffff" data-original="#000000"/>
	<path d="M163.669,110.396c0.972,0.666,2.108,1.018,3.285,1.018h0.008c3.221,0,5.842-2.622,5.842-5.844   c0-0.547-0.076-1.088-0.228-1.614c-2.711-11.915-1.443-21.478,3.768-28.423c6.525-8.689,9.414-19.853,7.728-29.861   c-1.497-8.906-6.286-16.311-13.847-21.411c-1.946-1.314-4.581-1.334-6.599,0.04c-1.965,1.363-2.908,3.84-2.354,6.134   c2.942,12.548,0.247,20.534-6.505,32.676c-4.387,7.891-6.176,16.761-5.039,24.974C151.018,97.427,155.851,105.151,163.669,110.396z   " fill="#ffffff" data-original="#000000"/>
	<path d="M323.73,148.029c-3.87-4.556-9.403-7.065-15.581-7.065h-28.652c0.298-4.912-0.606-11.039-4.108-15.162   c-2.589-3.048-6.278-4.659-10.669-4.659H16.389c-6.5,0-10.245,2.799-12.241,5.147c-4.089,4.808-4.652,12.008-3.817,17.143   c6.84,42.023,21.617,80.197,41.611,107.489c14.797,20.199,32.133,34.593,51.817,43.11H24.588c-8.593,0-15.583,6.991-15.583,15.583   s6.991,15.583,15.583,15.583h230.381c8.593,0,15.584-6.991,15.584-15.583s-6.991-15.583-15.584-15.583h-68.806   c16.21-6.979,30.778-17.913,43.604-32.749c21.998-1.884,44.091-12.389,62.912-30.063c19.245-18.071,32.363-41.139,35.993-63.286   C329.127,165.163,330.112,155.541,323.73,148.029z M255.23,222.011c8.363-17.15,14.22-34.841,18.313-51.047h23.638   C291.181,190.207,275.035,210.463,255.23,222.011z" fill="#ffffff" data-original="#000000"/>
</g>
<g>
</g>
<g>
</g>
<g>
</g>
<g>
</g>
<g>
</g>
<g>
</g>
<g>
</g>
<g>
</g>
<g>
</g>
<g>
</g>
<g>
</g>
<g>
</g>
<g>
</g>
<g>
</g>
<g>
</g>
</g></svg>
