<svg id="icon" enable-background="new 0 0 24 24" height="512" viewBox="0 0 24 24" width="512" xmlns="http://www.w3.org/2000/svg"><path clip-rule="evenodd" d="m9 6c-.552 0-1 .448-1 1s.448 1 1 1 1-.448 1-1-.448-1-1-1zm-4 0h1.171c.412-1.165 1.523-2 2.829-2s2.417.835 2.829 2h7.171c.552 0 1 .448 1 1s-.448 1-1 1h-7.171c-.412 1.165-1.523 2-2.829 2s-2.417-.835-2.829-2h-1.171c-.552 0-1-.448-1-1s.448-1 1-1zm14 10c.552 0 1 .448 1 1s-.448 1-1 1h-1.171c-.412 1.165-1.523 2-2.829 2s-2.417-.835-2.829-2h-7.171c-.552 0-1-.448-1-1s.448-1 1-1h7.171c.412-1.165 1.523-2 2.829-2s2.417.835 2.829 2zm-5 1c0 .552.448 1 1 1s1-.448 1-1-.448-1-1-1-1 .448-1 1z" fill-rule="evenodd"/></svg>