<svg width="30" height="26" viewBox="0 0 30 26" fill="none" xmlns="http://www.w3.org/2000/svg">
<path d="M25.6685 3.58584C24.3133 2.11484 22.4538 1.30469 20.4321 1.30469C18.9209 1.30469 17.5369 1.78283 16.3185 2.72571C15.7037 3.20165 15.1466 3.78393 14.6555 4.46356C14.1645 3.78413 13.6073 3.20165 12.9923 2.72571C11.7741 1.78283 10.3901 1.30469 8.8789 1.30469C6.85717 1.30469 4.99742 2.11484 3.64221 3.58584C2.30318 5.03964 1.56555 7.02576 1.56555 9.17858C1.56555 11.3944 2.39066 13.4227 4.16213 15.5619C5.74683 17.4754 8.02443 19.418 10.6619 21.6673C11.5626 22.4355 12.5834 23.3062 13.6434 24.2337C13.9234 24.4792 14.2828 24.6143 14.6555 24.6143C15.028 24.6143 15.3875 24.4792 15.6671 24.2341C16.7271 23.3064 17.7486 22.4353 18.6496 21.6667C21.2867 19.4178 23.5643 17.4754 25.149 15.5617C26.9205 13.4227 27.7454 11.3944 27.7454 9.17838C27.7454 7.02576 27.0078 5.03964 25.6685 3.58584Z" fill="#38C5BC" fill-opacity="0.9"/>
<path d="M14.612 26C14.196 26 13.7949 25.8493 13.4823 25.5755C12.3017 24.5432 11.1635 23.5731 10.1592 22.7173L10.1541 22.7129C7.20991 20.2039 4.66748 18.0371 2.8985 15.9027C0.921054 13.5166 0 11.2542 0 8.78268C0 6.38138 0.823397 4.16604 2.31835 2.54444C3.83115 0.903663 5.90692 0 8.16396 0C9.85089 0 11.3958 0.533324 12.7556 1.58503C13.4419 2.11591 14.064 2.76562 14.612 3.52346C15.1603 2.76562 15.7821 2.11591 16.4686 1.58503C17.8285 0.533324 19.3734 0 21.0603 0C23.3171 0 25.3931 0.903663 26.9059 2.54444C28.4008 4.16604 29.224 6.38138 29.224 8.78268C29.224 11.2542 28.3032 13.5166 26.3257 15.9025C24.5568 18.0371 22.0146 20.2037 19.0708 22.7124C18.0648 23.5695 16.9248 24.5412 15.7415 25.5759C15.4292 25.8493 15.0278 26 14.612 26V26ZM8.16396 1.7119C6.39075 1.7119 4.76179 2.41958 3.57675 3.70473C2.3741 5.00928 1.71168 6.81259 1.71168 8.78268C1.71168 10.8614 2.48424 12.7204 4.21643 14.8104C5.89065 16.8307 8.3809 18.9529 11.2642 21.4101L11.2696 21.4146C12.2776 22.2736 13.4203 23.2475 14.6096 24.2874C15.806 23.2455 16.9504 22.2701 17.9604 21.4097C20.8436 18.9524 23.3336 16.8307 25.0078 14.8104C26.7398 12.7204 27.5123 10.8614 27.5123 8.78268C27.5123 6.81259 26.8499 5.00928 25.6473 3.70473C24.4625 2.41958 22.8333 1.7119 21.0603 1.7119C19.7613 1.7119 18.5687 2.12482 17.5156 2.93908C16.5772 3.66504 15.9235 4.58275 15.5402 5.22488C15.3431 5.55509 14.9962 5.75219 14.612 5.75219C14.2278 5.75219 13.8809 5.55509 13.6838 5.22488C13.3008 4.58275 12.6471 3.66504 11.7084 2.93908C10.6553 2.12482 9.46271 1.7119 8.16396 1.7119V1.7119Z" fill="white"/>
</svg>
