<svg height="512" viewBox="0 0 512 512" width="512" xmlns="http://www.w3.org/2000/svg"><g id="diamond"><path d="m248.58 404.87a140.8 140.8 0 0 1 217.18-118.24c.15-10.43.23-21.56.23-33.57 0-61.75-2.1-100.29-6.25-140.21h.59a119.41 119.41 0 0 0 -77.65-99.85c-1.11-.42-2.22-.82-3.34-1.2a119.37 119.37 0 0 0 -25.58-5.57l-.83-.09c-33.21-3.41-38.54-6.14-108.57-6.14s-81.36 2.73-114.54 6.19l-.83.09a119.16 119.16 0 0 0 -26.81 6v-.45a119.48 119.48 0 0 0 -80.38 100.78c-4.16 40-6.28 78.58-6.28 140.45s2.12 100.45 6.28 140.45a119.59 119.59 0 0 0 106.58 106.57l.83.09c33.21 3.46 38.53 6.19 108.56 6.19 23.2 0 40-.3 53.19-.83a140.36 140.36 0 0 1 -42.38-100.66zm-117-271.72h218.31a23.82 23.82 0 0 1 0 47.64h-218.26a23.82 23.82 0 0 1 0-47.64zm0 149.57a23.83 23.83 0 0 1 0-47.65h124.51a23.83 23.83 0 1 1 0 47.65z"/><path d="m389.35 297.74a107.13 107.13 0 1 0 107.13 107.13 107.13 107.13 0 0 0 -107.13-107.13zm42.46 122.81h-44.59a12.75 12.75 0 0 1 -12.75-12.75v-68.5a12.75 12.75 0 1 1 25.5 0v55.75h31.84a12.75 12.75 0 0 1 0 25.5z"/></g></svg>