<svg xmlns="http://www.w3.org/2000/svg" version="1.1" xmlns:xlink="http://www.w3.org/1999/xlink" xmlns:svgjs="http://svgjs.com/svgjs" width="512" height="512" x="0" y="0" viewBox="0 0 20 20" style="enable-background:new 0 0 512 512" xml:space="preserve" class=""><g><g><path d="m10 0c-3.3 0-6 2.7-6 6s6 11 6 11 6-7.7 6-11-2.7-6-6-6zm0 8c-1.1 0-2-.9-2-2s.9-2 2-2 2 .9 2 2-.9 2-2 2z" fill="#ffffff" data-original="#000000" class=""></path><g><path d="m16.3 11.1c-.3.6-.6 1.2-1 1.8 1.7.6 2.7 1.4 2.7 2.1 0 1.2-3.2 3-8 3s-8-1.8-8-3c0-.7 1-1.5 2.7-2.2-.4-.6-.7-1.2-1-1.8-2.3 1-3.7 2.4-3.7 4 0 2.8 4.2 5 9.8 5 5 0 10.2-1.7 10.2-5 0-1.6-1.4-3-3.7-3.9z" fill="#ffffff" data-original="#000000" class=""></path></g></g></g></svg>