<svg id="Layer_1" enable-background="new 0 0 512 512" height="512" viewBox="0 0 512 512" width="512" xmlns="http://www.w3.org/2000/svg"><path d="m389.285 368.548c12.566 12.427 12.68 32.688.253 45.254-42.487 42.965-99.156 66.627-159.567 66.627-59.947 0-116.307-23.345-158.696-65.734-42.389-42.388-65.733-98.747-65.733-158.695s23.345-116.307 65.734-158.696 98.748-65.734 158.695-65.734c60.411 0 117.08 23.662 159.567 66.627 12.426 12.566 12.313 32.828-.253 45.254s-32.828 12.313-45.254-.253c-30.371-30.713-70.878-47.628-114.059-47.628-88.461 0-160.43 71.969-160.43 160.43s71.969 160.429 160.43 160.429c43.181 0 83.688-16.915 114.06-47.628 12.426-12.565 32.687-12.678 45.253-.253zm107.801-135.175-62.826-62.826c-12.497-12.497-32.758-12.497-45.255 0s-12.497 32.758 0 45.255l8.198 8.198h-167.232c-17.673 0-32 14.327-32 32s14.327 32 32 32h167.232l-8.198 8.198c-12.497 12.497-12.497 32.758 0 45.255 6.249 6.249 14.438 9.373 22.627 9.373s16.379-3.124 22.627-9.373l62.826-62.826c12.498-12.496 12.498-32.758.001-45.254z"/></svg>