<?xml version="1.0"?>
<svg xmlns="http://www.w3.org/2000/svg" xmlns:xlink="http://www.w3.org/1999/xlink" xmlns:svgjs="http://svgjs.com/svgjs" version="1.1" width="512" height="512" x="0" y="0" viewBox="0 0 512 512" style="enable-background:new 0 0 512 512" xml:space="preserve" class=""><g>
<g xmlns="http://www.w3.org/2000/svg">
	<g>
		<path d="M388.816,169.245c-3.89-3.92-10.221-3.946-14.142-0.057c-3.92,3.89-3.946,10.222-0.056,14.143l0.06,0.062    c1.947,1.963,4.499,2.941,7.054,2.941c2.548,0,5.1-0.974,7.058-2.916C392.711,179.528,392.706,173.166,388.816,169.245z" fill="#5ab495" data-original="#000000" class=""/>
	</g>
</g>
<g xmlns="http://www.w3.org/2000/svg">
	<g>
		<path d="M509.071,289.501l-92.878-92.878c-3.905-3.904-10.237-3.904-14.143,0c-3.905,3.905-3.905,10.237,0,14.143l73.732,73.731    H299.957c-14.586,0-26.451-11.866-26.451-26.451V82.222l71.183,71.182c3.905,3.904,10.237,3.904,14.143,0    c3.905-3.905,3.905-10.237,0-14.143l-90.33-90.329c-3.905-3.904-10.237-3.904-14.142,0L94.94,208.355    c-3.905,3.905-3.905,10.237,0,14.143l240.569,240.568c1.875,1.875,4.419,2.929,7.071,2.929c2.652,0,5.196-1.054,7.071-2.929    l159.421-159.422c1.875-1.876,2.929-4.419,2.929-7.071C512,293.921,510.946,291.377,509.071,289.501z M253.508,78.071v127.356    H126.152L253.508,78.071z M332.58,431.852L126.152,225.426h127.356v32.62c0,25.613,20.838,46.451,46.451,46.451h32.621V431.852z     M352.579,431.853V304.497h127.355L352.579,431.853z" fill="#5ab495" data-original="#000000" class=""/>
	</g>
</g>
<g xmlns="http://www.w3.org/2000/svg">
	<g>
		<path d="M68.631,253.999H10c-5.523,0-10,4.478-10,10c0,5.522,4.477,10,10,10h58.631c5.523,0,10-4.477,10-10    C78.631,258.477,74.154,253.999,68.631,253.999z" fill="#5ab495" data-original="#000000" class=""/>
	</g>
</g>
<g xmlns="http://www.w3.org/2000/svg">
	<g>
		<path d="M98.446,253.999h-0.15c-5.523,0-10,4.478-10,10s4.477,10,10,10h0.15c5.523,0,10-4.478,10-10    S103.969,253.999,98.446,253.999z" fill="#5ab495" data-original="#000000" class=""/>
	</g>
</g>
<g xmlns="http://www.w3.org/2000/svg">
	<g>
		<path d="M42.016,149.002H10.013c-5.523,0-10,4.478-10,10s4.477,10,10,10h32.003c5.523,0,10-4.478,10-10    S47.539,149.002,42.016,149.002z" fill="#5ab495" data-original="#000000" class=""/>
	</g>
</g>
<g xmlns="http://www.w3.org/2000/svg">
	<g>
		<path d="M112.51,149.002H74.682c-5.523,0-10,4.478-10,10s4.477,10,10,10h37.828c5.523,0,10-4.478,10-10    S118.033,149.002,112.51,149.002z" fill="#5ab495" data-original="#000000" class=""/>
	</g>
</g>
<g xmlns="http://www.w3.org/2000/svg">
	<g>
		<path d="M134.282,308.998H78.283c-5.523,0-10,4.478-10,10s4.477,10,10,10h55.999c5.523,0,10-4.478,10-10    S139.804,308.998,134.282,308.998z" fill="#5ab495" data-original="#000000" class=""/>
	</g>
</g>
<g xmlns="http://www.w3.org/2000/svg">
	<g>
		<path d="M178.008,372.996H37.009c-5.523,0-10,4.478-10,10s4.477,10,10,10h140.999c5.523,0,10-4.478,10-10    S183.531,372.996,178.008,372.996z" fill="#5ab495" data-original="#000000" class=""/>
	</g>
</g>
<g xmlns="http://www.w3.org/2000/svg">
</g>
<g xmlns="http://www.w3.org/2000/svg">
</g>
<g xmlns="http://www.w3.org/2000/svg">
</g>
<g xmlns="http://www.w3.org/2000/svg">
</g>
<g xmlns="http://www.w3.org/2000/svg">
</g>
<g xmlns="http://www.w3.org/2000/svg">
</g>
<g xmlns="http://www.w3.org/2000/svg">
</g>
<g xmlns="http://www.w3.org/2000/svg">
</g>
<g xmlns="http://www.w3.org/2000/svg">
</g>
<g xmlns="http://www.w3.org/2000/svg">
</g>
<g xmlns="http://www.w3.org/2000/svg">
</g>
<g xmlns="http://www.w3.org/2000/svg">
</g>
<g xmlns="http://www.w3.org/2000/svg">
</g>
<g xmlns="http://www.w3.org/2000/svg">
</g>
<g xmlns="http://www.w3.org/2000/svg">
</g>
</g></svg>
