<svg height="511pt" viewBox="0 1 511.99995 511" width="511pt" xmlns="http://www.w3.org/2000/svg"><path d="m510.769531 491.511719-90.347656-210.789063c-2.375-5.535156-7.820313-9.125-13.839844-9.125h-57.378906c23.222656-40.570312 42.320313-85.472656 42.320313-123.464844 0-195.648437-271.046876-198.035156-271.046876 0 0 37.992188 19.097657 82.894532 42.320313 123.464844h-57.378906c-6.023438 0-11.46875 3.589844-13.839844 9.125l-90.347656 210.789063c-4.25 9.914062 3.03125 20.988281 13.839843 20.988281h481.859376c10.785156 0 18.097656-11.050781 13.839843-20.988281zm-114.121093-189.800781 44.582031 104.007812c-1.394531.726562-146.496094 76.074219-147.535157 76.667969h-31.519531c-.796875-.890625 5.976563 5.917969-92.164062-92.210938l54.511719-27.898437c11.113281 14.183594 18.898437 23.195312 20.113281 24.59375 6 6.90625 16.730469 6.894531 22.722656 0 2.519531-2.898438 33.214844-38.464844 63.453125-85.160156zm-140.648438-271.019532c50.765625 0 105.40625 36.753906 105.40625 117.441406 0 67.84375-76.050781 168.808594-105.40625 205.246094-29.355469-36.441406-105.40625-137.402344-105.40625-205.246094 0-81.125 52.9375-117.441406 105.40625-117.441406zm-140.652344 271.019532c72.945313 0 64.65625.011718 65.824219-.023438 8.480469 13.097656 16.996094 25.320312 24.917969 36.195312l-136.101563 69.65625zm-63.933594 149.164062 90.429688-46.28125 77.804688 77.792969h-181.742188zm307.546876 31.511719 94.167968-48.914063 20.964844 48.914063zm0 0"/><path d="m301.171875 136.089844c0-24.90625-20.265625-45.171875-45.171875-45.171875-24.910156 0-45.175781 20.265625-45.175781 45.171875s20.265625 45.167968 45.175781 45.167968c24.90625 0 45.171875-20.261718 45.171875-45.167968zm-60.230469 0c0-8.304688 6.753906-15.058594 15.058594-15.058594 8.300781 0 15.058594 6.753906 15.058594 15.058594 0 8.300781-6.757813 15.054687-15.058594 15.054687-8.304688 0-15.058594-6.753906-15.058594-15.054687zm0 0"/></svg>