<?xml version="1.0" encoding="iso-8859-1"?>
<!-- Generator: Adobe Illustrator 19.1.0, SVG Export Plug-In . SVG Version: 6.00 Build 0)  -->
<svg version="1.1" id="Capa_1" xmlns="http://www.w3.org/2000/svg" xmlns:xlink="http://www.w3.org/1999/xlink" x="0px" y="0px"
	 viewBox="0 0 472.482 472.482" style="enable-background:new 0 0 472.482 472.482;" xml:space="preserve">
<g>
	<g id="XMLID_1977_">
		<g id="XMLID_1846_">
			<path id="XMLID_65_" d="M462.654,463.788c10.1-8.5,12.8-23.1,6.3-34.6l-62.5-111.2c-5.9-10.5-22-17.5-40.2-17.7
				c-22.5,31.5-54.1,67.1-98.4,103.9c-8.8,7.3-20,11.4-31.5,11.4s-22.7-4-31.5-11.4c-44.3-36.8-75.9-72.4-98.4-103.9
				c-18.2,0.2-34.4,7.2-40.2,17.7l-62.7,111.2c-6.5,11.5-3.9,26.1,6.3,34.6l0,0c5,4.2,11.3,6.5,17.8,6.5h95.4h226.5h95.4
				C451.354,470.288,457.654,467.988,462.654,463.788L462.654,463.788z"/>
		</g>
		<g id="XMLID_1998_">
			<path id="XMLID_2002_" d="M236.254,97.188c-31.5,0-57.1,25.6-57.1,57.1c0,7.5,6.1,13.7,13.7,13.7c7.5,0,13.7-6.1,13.7-13.7
				c0-16.4,13.4-29.8,29.8-29.8c7.5,0,13.7-6.1,13.7-13.7C249.954,103.288,243.754,97.188,236.254,97.188z"/>
			<path id="XMLID_1999_" d="M386.654,152.588c0-84.9-70.3-153.3-155.8-150.3c-74.9,2.6-137.2,61.1-144.3,135.7
				c-1.4,14.9-0.6,29.4,2,43.2l0,0c0,0,0.3,1.6,1,4.7c2.3,10.4,5.8,20.4,10.1,29.8c15.1,35.8,50,95.6,128.2,160.6
				c4.8,4,11.9,4,16.7,0c78.2-65,113.1-124.7,128.2-160.6c4.4-9.5,7.8-19.4,10.1-29.8c0.7-3.1,1-4.7,1-4.7l0,0
				C385.754,171.888,386.654,162.288,386.654,152.588z M236.254,245.788c-50.5,0-91.5-41-91.5-91.5s41-91.5,91.5-91.5
				s91.5,41,91.5,91.5S286.754,245.788,236.254,245.788z"/>
		</g>
	</g>
</g>
<g>
</g>
<g>
</g>
<g>
</g>
<g>
</g>
<g>
</g>
<g>
</g>
<g>
</g>
<g>
</g>
<g>
</g>
<g>
</g>
<g>
</g>
<g>
</g>
<g>
</g>
<g>
</g>
<g>
</g>
</svg>
