<svg width="29" height="29" viewBox="0 0 29 29" fill="none" xmlns="http://www.w3.org/2000/svg">
<g clip-path="url(#clip0_4_930)">
<path d="M27.3017 1.5892C26.2425 0.529801 24.9664 0 23.4744 0H5.41777C3.92574 0 2.64966 0.529801 1.59006 1.5892C0.530655 2.64881 0.000854492 3.92482 0.000854492 5.41692V23.4734C0.000854492 24.9653 0.530655 26.2415 1.59006 27.3011C2.64966 28.3607 3.92574 28.8905 5.41777 28.8905H23.4742C24.9662 28.8905 26.2423 28.3607 27.3015 27.3011C28.3611 26.2415 28.8909 24.9654 28.8909 23.4734V5.41692C28.8908 3.92482 28.361 2.64861 27.3017 1.5892ZM22.1012 11.1161C22.1138 11.229 22.1202 11.398 22.1202 11.6241C22.1202 12.6774 21.9664 13.7338 21.6594 14.7931C21.3523 15.8529 20.882 16.8686 20.2485 17.8403C19.6157 18.8119 18.8602 19.6711 17.9825 20.4172C17.1047 21.1629 16.0515 21.7588 14.8224 22.2036C13.5939 22.6491 12.2771 22.8718 10.8728 22.8718C8.69111 22.8718 6.67231 22.2821 4.81643 21.1039C5.11736 21.1413 5.43102 21.1602 5.75685 21.1602C7.57512 21.1602 9.21149 20.596 10.6661 19.4671C9.81356 19.4549 9.05167 19.1918 8.38089 18.6772C7.70991 18.1631 7.24296 17.5112 6.97957 16.7211C7.30548 16.7712 7.54996 16.796 7.71294 16.796C7.98878 16.796 8.30862 16.746 8.67214 16.6459C7.75682 16.4701 6.98577 16.016 6.35879 15.2824C5.73169 14.5488 5.41824 13.7118 5.41824 12.7715V12.7339C6.08263 13.0471 6.7096 13.2101 7.29902 13.2228C6.15793 12.4578 5.58741 11.3607 5.58741 9.93129C5.58741 9.22902 5.76911 8.5645 6.13276 7.93752C7.12326 9.15392 8.32726 10.1256 9.744 10.8528C11.1609 11.58 12.6783 11.9877 14.2957 12.0754C14.2331 11.8372 14.2017 11.5361 14.2017 11.1726C14.2017 10.0815 14.5873 9.15062 15.3586 8.37938C16.1295 7.60819 17.0607 7.22247 18.1514 7.22247C19.3053 7.22247 20.2648 7.63639 21.0296 8.46403C21.8948 8.30105 22.7353 7.98114 23.5501 7.50483C23.2367 8.47009 22.6533 9.20372 21.801 9.70533C22.6158 9.59228 23.3742 9.37923 24.0763 9.06577C23.5497 9.86825 22.8912 10.5516 22.1012 11.1161Z" fill="#A4A4A4"/>
</g>
<defs>
<clipPath id="clip0_4_930">
<rect width="28.8904" height="28.8904" fill="white"/>
</clipPath>
</defs>
</svg>
