<svg width="29" height="29" viewBox="0 0 29 29" fill="none" xmlns="http://www.w3.org/2000/svg">
<g clip-path="url(#clip0_4_933)">
<path d="M17.094 14.4452C17.094 15.8475 15.9571 16.9844 14.5548 16.9844C13.1525 16.9844 12.0156 15.8475 12.0156 14.4452C12.0156 13.0429 13.1525 11.906 14.5548 11.906C15.9571 11.906 17.094 13.0429 17.094 14.4452Z" fill="#A4A4A4"/>
<path d="M18.8433 6.77118H10.2665C8.39953 6.77118 6.88086 8.28985 6.88086 10.1568V18.7336C6.88086 20.6005 8.39953 22.1192 10.2665 22.1192H18.8433C20.7102 22.1192 22.2289 20.6005 22.2289 18.7336V10.1568C22.2289 8.28985 20.7102 6.77118 18.8433 6.77118ZM14.5549 18.6772C12.2213 18.6772 10.3229 16.7787 10.3229 14.4452C10.3229 12.1116 12.2213 10.2132 14.5549 10.2132C16.8884 10.2132 18.7869 12.1116 18.7869 14.4452C18.7869 16.7787 16.8884 18.6772 14.5549 18.6772ZM19.4076 10.4389C18.9401 10.4389 18.5612 10.06 18.5612 9.59251C18.5612 9.12501 18.9401 8.74611 19.4076 8.74611C19.8751 8.74611 20.254 9.12501 20.254 9.59251C20.254 10.06 19.8751 10.4389 19.4076 10.4389Z" fill="#A4A4A4"/>
<path d="M21.3824 0H7.72721C3.52695 0 0.109619 3.41734 0.109619 7.61759V21.2728C0.109619 25.4731 3.52695 28.8904 7.72721 28.8904H21.3824C25.5827 28.8904 29 25.4731 29 21.2728V7.61759C29 3.41734 25.5827 0 21.3824 0ZM23.9216 18.7336C23.9216 21.5338 21.6434 23.812 18.8432 23.812H10.2664C7.46624 23.812 5.18801 21.5338 5.18801 18.7336V10.1568C5.18801 7.35662 7.46624 5.07839 10.2664 5.07839H18.8432C21.6434 5.07839 23.9216 7.35662 23.9216 10.1568V18.7336Z" fill="#A4A4A4"/>
</g>
<defs>
<clipPath id="clip0_4_933">
<rect width="28.8904" height="28.8904" fill="white" transform="translate(0.109619)"/>
</clipPath>
</defs>
</svg>
