<svg width="29" height="29" viewBox="0 0 29 29" fill="none" xmlns="http://www.w3.org/2000/svg">
<g clip-path="url(#clip0_4_937)">
<path d="M12.6428 11.602V16.8757L17.5037 14.2618L12.6428 11.602Z" fill="#A4A4A4"/>
<path d="M21.6997 0H7.27741C3.31071 0 0.0548096 3.2559 0.0548096 7.24553V21.6678C0.0548096 25.6345 3.31071 28.8904 7.27741 28.8904H21.6997C25.6893 28.8904 28.9452 25.6345 28.9452 21.6449V7.24553C28.9452 3.2559 25.6893 0 21.6997 0ZM23.4423 15.156C23.4423 16.6693 23.3047 18.2055 23.3047 18.2055C23.3047 18.2055 23.1442 19.4896 22.6168 20.0628C21.929 20.8194 21.1723 20.8194 20.8284 20.8653C18.3062 21.0487 14.5229 21.0717 14.5229 21.0717C14.5229 21.0717 9.82252 21.0029 8.378 20.8653C7.98821 20.7965 7.07105 20.8194 6.38319 20.0628C5.83289 19.4896 5.69532 18.2055 5.69532 18.2055C5.69532 18.2055 5.55774 16.6693 5.55774 15.156V13.7344C5.55774 12.2211 5.69532 10.6849 5.69532 10.6849C5.69532 10.6849 5.85582 9.40085 6.38319 8.82763C7.07105 8.07097 7.82771 8.04804 8.17164 8.00219C10.7167 7.81875 14.5 7.79583 14.5 7.79583C14.5 7.79583 18.2833 7.81875 20.8055 8.00219C21.1494 8.04804 21.929 8.07097 22.6168 8.8047C23.1671 9.37792 23.3047 10.6849 23.3047 10.6849C23.3047 10.6849 23.4423 12.2211 23.4423 13.7344V15.156Z" fill="#A4A4A4"/>
</g>
<defs>
<clipPath id="clip0_4_937">
<rect width="28.8904" height="28.8904" fill="white" transform="translate(0.0548096)"/>
</clipPath>
</defs>
</svg>
