<svg width="27" height="36" viewBox="0 0 27 36" fill="none" xmlns="http://www.w3.org/2000/svg">
<path d="M22.8685 1H4.06461C2.40743 1 1 2.33656 1 4.06461V31.8693C1.00488 34.0627 3.68385 35.0918 5.20689 33.5522L12.3744 26.3867C12.9488 25.7874 13.9843 25.7874 14.5587 26.3867L21.7263 33.5522C23.25 35.0924 25.9286 34.0617 25.9332 31.8693V4.06461C25.9332 2.33656 24.5257 1 22.8685 1V1Z" fill="#38C5BC" fill-opacity="0.7"/>
<path d="M3.26671 1.00005C2.66593 1.00005 2.08807 1.23861 1.66307 1.66417C1.238 2.08917 1 2.66548 1 3.26669V33.4507C1 34.3064 1.69136 35 2.547 35H2.55271C3.01171 35 3.448 34.8176 3.771 34.4934C5.27264 32.9929 9.70399 28.5615 11.5343 26.7346C12.0443 26.2218 12.7413 25.9334 13.4667 25.9334C14.1921 25.9334 14.8891 26.2218 15.399 26.7346C17.235 28.5672 21.689 33.0201 23.1737 34.507C23.491 34.8227 23.9159 35 24.3636 35C25.2307 35 25.9333 34.2979 25.9333 33.4315V3.26669C25.9333 2.66548 25.6953 2.08917 25.2703 1.66417C24.8453 1.23861 24.2674 1.00005 23.6666 1.00005H3.26671Z" fill="#38C5BC" fill-opacity="0.7"/>
<path fill-rule="evenodd" clip-rule="evenodd" d="M2.547 34C2.24554 34 2 33.756 2 33.4507V3.26669C2 2.92986 2.13323 2.60818 2.37012 2.37134L2.37065 2.37081C2.60737 2.13377 2.93038 2.00005 3.26671 2.00005H23.6666C24.0029 2.00005 24.326 2.13377 24.5628 2.37087L24.5632 2.37128C24.8001 2.60815 24.9333 2.92985 24.9333 3.26669V33.4315C24.9333 33.7449 24.6791 34 24.3636 34C24.1836 34 24.0117 33.9297 23.8799 33.799C22.3936 32.3105 17.9432 27.8613 16.1067 26.0281C15.408 25.3262 14.4558 24.9334 13.4667 24.9334C12.4774 24.9334 11.5253 25.3262 10.8266 26.0282C9.58784 27.2646 7.16012 29.6915 5.25418 31.5969C4.34226 32.5085 3.54978 33.3008 3.06416 33.786L3.06258 33.7876C2.92623 33.9244 2.74445 34 2.55271 34H2.547ZM0 33.4507C0 34.8568 1.13717 36 2.547 36H2.55271C3.27854 36 3.96895 35.7111 4.47851 35.2001C4.96487 34.7141 5.75767 33.9215 6.66967 33.0098C8.57597 31.1041 11.0031 28.6778 12.2408 27.4424L12.2434 27.4398C12.5645 27.1169 13.0057 26.9334 13.4667 26.9334C13.9276 26.9334 14.3689 27.1169 14.6899 27.4397L14.6925 27.4424C16.5282 29.2747 20.9818 33.7271 22.4661 35.2136L22.4684 35.2159C22.971 35.7159 23.6486 36 24.3636 36C25.7823 36 26.9333 34.8508 26.9333 33.4315V3.26669C26.9333 2.40111 26.5906 1.5702 25.9774 0.957066C25.3642 0.3433 24.5317 4.57764e-05 23.6666 4.57764e-05H3.26671C2.40148 4.57764e-05 1.56877 0.343445 0.955494 0.957535C0.34257 1.57064 0 2.40135 0 3.26669V33.4507Z" fill="white"/>
</svg>
