<svg id="Capa_1" enable-background="new 0 0 512 512" height="512" viewBox="0 0 512 512" width="512" xmlns="http://www.w3.org/2000/svg"><g><circle cx="256" cy="256" fill="#fabe2c" r="256"/><path d="m512 256c0-140.834-115.168-256-256-256v512c140.832 0 256-115.168 256-256z" fill="#ff9100"/><circle cx="256" cy="256" fill="#fed843" r="195"/><path d="m451 256c0-107.52-87.48-195-195-195v390c107.52 0 195-87.48 195-195z" fill="#fabe2c"/><path d="m384.394 214.281c-1.772-5.435-6.46-9.39-12.114-10.21l-71.045-10.327-31.787-64.38c-2.52-5.127-7.983-7.69-13.447-7.69s-10.928 2.563-13.447 7.69l-31.787 64.38-71.045 10.327c-5.654.82-10.342 4.775-12.114 10.195-1.758 5.435-.293 11.396 3.794 15.381l51.416 50.127-12.129 70.767c-.967 5.625 1.348 11.309 5.962 14.663 4.66 3.384 10.794 3.792 15.791 1.143l63.558-33.399 63.56 33.398c5.039 2.666 11.191 2.241 15.791-1.143 4.614-3.354 6.929-9.038 5.962-14.663l-12.144-70.767 51.431-50.127c4.087-3.983 5.551-9.945 3.794-15.365z" fill="#fabe2c"/><path d="m335.351 365.204c4.614-3.354 6.929-9.038 5.962-14.663l-12.144-70.767 51.431-50.127c4.087-3.984 5.552-9.946 3.794-15.366-1.772-5.435-6.46-9.39-12.114-10.21l-71.045-10.327-31.787-64.38c-2.52-5.127-7.983-7.69-13.447-7.69v211.274l63.56 33.398c5.038 2.667 11.19 2.242 15.79-1.142z" fill="#ff9100"/></g></svg>