<svg width="168" height="27" viewBox="0 0 168 27" fill="none" xmlns="http://www.w3.org/2000/svg">
<path d="M18.8583 5.672C19.1003 3.978 19.5843 2.757 20.3103 2.009C21.0363 1.261 21.9933 0.886999 23.1813 0.886999C24.3693 0.886999 25.2383 1.239 25.7883 1.943C26.3603 2.625 26.6463 3.318 26.6463 4.022C26.6463 4.242 26.6243 4.462 26.5803 4.682C26.0963 7.124 24.4793 9.027 21.7293 10.391L19.4193 26H13.8753L9.94827 8.609L8.13327 21.479C7.89127 23.107 7.38527 24.306 6.61527 25.076C5.86727 25.846 4.98727 26.231 3.97527 26.231C2.96327 26.231 2.11627 25.934 1.43427 25.34C0.774266 24.746 0.367266 23.899 0.213266 22.799C0.191266 22.623 0.180266 22.447 0.180266 22.271C0.180266 20.093 1.81927 18.223 5.09727 16.661L6.51627 6.035C7.06627 5.793 7.53927 5.672 7.93527 5.672C8.35327 5.672 8.70527 5.705 8.99127 5.771C8.48527 4.979 7.68227 4.583 6.58227 4.583C5.48227 4.583 4.51427 5.155 3.67827 6.299L3.05127 3.461C3.46927 2.889 4.19527 2.317 5.22927 1.745C6.28527 1.151 7.44027 0.853999 8.69427 0.853999C9.97027 0.853999 11.0483 1.239 11.9283 2.009C12.8083 2.757 13.4463 4.022 13.8423 5.804L16.9443 18.872L18.8583 5.672ZM22.1583 7.553C23.5223 6.585 24.2043 5.683 24.2043 4.847C24.2043 4.693 24.1493 4.517 24.0393 4.319C23.9293 4.121 23.7643 4.022 23.5443 4.022C23.1263 4.022 22.8403 4.253 22.6863 4.715C22.4663 5.353 22.2903 6.299 22.1583 7.553ZM4.76727 19.4C3.24927 20.258 2.49027 21.094 2.49027 21.908C2.49027 22.722 2.78727 23.129 3.38127 23.129C3.77727 23.129 4.06327 22.876 4.23927 22.37C4.41527 21.842 4.58027 20.907 4.73427 19.565L4.76727 19.4ZM33.1627 10.127C35.1867 10.127 36.8697 10.776 38.2117 12.074C39.5757 13.372 40.2577 14.956 40.2577 16.826C40.2577 19.664 39.4217 21.941 37.7497 23.657C36.0997 25.351 34.0977 26.198 31.7437 26.198C29.3897 26.198 27.5197 25.527 26.1337 24.185C24.7697 22.843 24.0877 21.182 24.0877 19.202C24.0877 16.43 24.9347 14.23 26.6287 12.602C28.3447 10.952 30.5227 10.127 33.1627 10.127ZM32.5027 12.8C31.4687 12.8 30.5997 13.394 29.8957 14.582C29.1917 15.77 28.8067 17.266 28.7407 19.07C28.7407 20.346 28.9937 21.402 29.4997 22.238C30.0277 23.074 30.8197 23.492 31.8757 23.492C32.9317 23.492 33.8117 22.909 34.5157 21.743C35.2417 20.577 35.6047 19.246 35.6047 17.75C35.6047 16.254 35.3517 15.066 34.8457 14.186C34.3397 13.262 33.5587 12.8 32.5027 12.8ZM50.9673 26L52.2213 15.044C52.2213 14.428 52.0673 13.922 51.7593 13.526C51.4733 13.108 50.9563 12.899 50.2083 12.899C49.4603 12.899 48.8443 13.262 48.3603 13.988C47.8763 14.692 47.5683 15.44 47.4363 16.232C46.6663 21.71 46.2373 24.966 46.1493 26H41.7273L43.5423 10.49C44.4663 10.248 45.1703 10.127 45.6543 10.127C47.0403 10.127 47.7993 10.589 47.9313 11.513C49.0093 10.589 50.1863 10.127 51.4623 10.127C54.0143 10.127 55.6423 10.886 56.3463 12.404C57.4243 10.864 58.9643 10.094 60.9663 10.094C62.4403 10.094 63.6063 10.479 64.4643 11.249C65.3223 11.997 65.7513 12.943 65.7513 14.087C65.7513 14.417 65.6853 15 65.5533 15.836C65.0473 19.136 64.7943 21.072 64.7943 21.644C64.7943 22.678 65.1353 23.195 65.8173 23.195C66.3893 23.195 66.9943 22.821 67.6323 22.073C68.2923 21.303 68.8203 20.126 69.2163 18.542C69.9643 19.334 70.4153 19.961 70.5693 20.423C69.4253 24.251 67.4013 26.165 64.4973 26.165C63.1333 26.165 62.1213 25.747 61.4613 24.911C60.8013 24.075 60.4713 23.195 60.4713 22.271L61.2633 14.978C61.2633 14.384 61.1093 13.889 60.8013 13.493C60.4933 13.097 59.9983 12.899 59.3163 12.899C58.6563 12.899 58.0733 13.152 57.5673 13.658C57.0613 14.164 56.7093 14.813 56.5113 15.605C55.8513 21.193 55.4223 24.658 55.2243 26H50.9673ZM82.8687 26.165C80.8447 26.165 79.5027 25.461 78.8427 24.053C77.6987 25.483 76.2247 26.198 74.4207 26.198C72.6387 26.198 71.1317 25.593 69.8997 24.383C68.6897 23.173 68.0847 21.578 68.0847 19.598C68.0847 16.716 68.9317 14.417 70.6257 12.701C72.3197 10.985 74.4647 10.127 77.0607 10.127C77.1267 10.127 77.1927 10.127 77.2587 10.127C78.3587 10.127 79.3707 10.314 80.2947 10.688C80.8887 10.314 81.6037 10.127 82.4397 10.127C83.2977 10.127 83.9137 10.237 84.2877 10.457C84.0897 12.085 83.8807 13.691 83.6607 15.275C83.4407 16.837 83.2867 17.948 83.1987 18.608C83.0007 20.104 82.9017 21.182 82.9017 21.842C82.9017 22.722 83.2537 23.162 83.9577 23.162C84.5077 23.162 85.0907 22.799 85.7067 22.073C86.3227 21.325 86.8617 20.159 87.3237 18.575C87.9617 19.147 88.4017 19.785 88.6437 20.489C88.0057 22.579 87.1477 24.053 86.0697 24.911C84.9917 25.747 83.9247 26.165 82.8687 26.165ZM77.5557 12.701C76.1477 12.701 75.0257 13.24 74.1897 14.318C73.3757 15.374 72.8917 16.958 72.7377 19.07C72.7157 19.268 72.7047 19.455 72.7047 19.631C72.7047 20.709 72.9577 21.567 73.4637 22.205C73.9917 22.843 74.6627 23.162 75.4767 23.162C76.8627 23.162 77.9077 22.183 78.6117 20.225L79.4037 13.097C78.7657 12.833 78.1497 12.701 77.5557 12.701ZM98.8688 2.207C99.0228 1.833 99.3638 1.525 99.8918 1.283C100.442 1.019 101.091 0.886999 101.839 0.886999C102.609 0.886999 103.181 0.996999 103.555 1.217C103.335 2.933 102.983 5.628 102.499 9.302C101.487 16.98 100.981 21.215 100.981 22.007C100.981 22.777 101.311 23.162 101.971 23.162C102.543 23.162 103.137 22.81 103.753 22.106C104.369 21.38 104.93 20.203 105.436 18.575C106.052 19.169 106.481 19.818 106.723 20.522C105.931 23.14 104.688 24.834 102.994 25.604C102.224 25.978 101.498 26.165 100.816 26.165C98.8578 26.165 97.5488 25.461 96.8888 24.053C95.7448 25.483 94.2818 26.198 92.4998 26.198C90.7178 26.198 89.2108 25.593 87.9788 24.383C86.7688 23.173 86.1638 21.578 86.1638 19.598C86.1638 16.716 87.0108 14.417 88.7048 12.701C90.3988 10.985 92.5438 10.127 95.1398 10.127C95.2058 10.127 95.2718 10.127 95.3378 10.127C96.2398 10.127 97.0868 10.259 97.8788 10.523L98.8688 2.207ZM95.6348 12.701C94.2268 12.701 93.1048 13.24 92.2688 14.318C91.4548 15.374 90.9708 16.958 90.8168 19.07C90.7948 19.268 90.7838 19.455 90.7838 19.631C90.7838 20.709 91.0368 21.567 91.5428 22.205C92.0708 22.843 92.7418 23.162 93.5558 23.162C94.9418 23.162 95.9868 22.183 96.6908 20.225L97.5488 13.13C96.8228 12.844 96.1848 12.701 95.6348 12.701ZM119.027 26.165C117.003 26.165 115.661 25.461 115.001 24.053C113.857 25.483 112.383 26.198 110.579 26.198C108.797 26.198 107.29 25.593 106.058 24.383C104.848 23.173 104.243 21.578 104.243 19.598C104.243 16.716 105.09 14.417 106.784 12.701C108.478 10.985 110.623 10.127 113.219 10.127C113.285 10.127 113.351 10.127 113.417 10.127C114.517 10.127 115.529 10.314 116.453 10.688C117.047 10.314 117.762 10.127 118.598 10.127C119.456 10.127 120.072 10.237 120.446 10.457C120.248 12.085 120.039 13.691 119.819 15.275C119.599 16.837 119.445 17.948 119.357 18.608C119.159 20.104 119.06 21.182 119.06 21.842C119.06 22.722 119.412 23.162 120.116 23.162C120.666 23.162 121.249 22.799 121.865 22.073C122.481 21.325 123.02 20.159 123.482 18.575C124.12 19.147 124.56 19.785 124.802 20.489C124.164 22.579 123.306 24.053 122.228 24.911C121.15 25.747 120.083 26.165 119.027 26.165ZM113.714 12.701C112.306 12.701 111.184 13.24 110.348 14.318C109.534 15.374 109.05 16.958 108.896 19.07C108.874 19.268 108.863 19.455 108.863 19.631C108.863 20.709 109.116 21.567 109.622 22.205C110.15 22.843 110.821 23.162 111.635 23.162C113.021 23.162 114.066 22.183 114.77 20.225L115.562 13.097C114.924 12.833 114.308 12.701 113.714 12.701ZM132.09 10.094C133.674 10.094 135.038 10.743 136.182 12.041C137.326 13.339 137.898 14.857 137.898 16.595C137.898 16.837 137.887 17.09 137.865 17.354C137.623 20.236 136.655 22.436 134.961 23.954C133.267 25.45 131.056 26.198 128.328 26.198C127.228 26.154 126.271 25.956 125.457 25.604C124.643 25.252 124.038 24.812 123.642 24.284C122.894 23.316 122.52 22.458 122.52 21.71C122.52 20.94 122.63 19.708 122.85 18.014C123.312 14.538 123.972 8.917 124.83 1.151C125.292 0.974999 125.908 0.886999 126.678 0.886999C128.438 0.886999 129.318 1.393 129.318 2.405L128.196 11.183C129.23 10.457 130.528 10.094 132.09 10.094ZM126.975 21.479C126.975 21.985 127.162 22.414 127.536 22.766C127.932 23.096 128.471 23.261 129.153 23.261C130.275 23.261 131.199 22.744 131.925 21.71C132.805 20.456 133.245 18.828 133.245 16.826C133.245 15.858 133.025 15 132.585 14.252C132.145 13.504 131.463 13.13 130.539 13.13C129.285 13.13 128.328 13.878 127.668 15.374L127.404 17.354C127.118 19.576 126.975 20.951 126.975 21.479ZM143.73 26.231C142.388 26.231 141.332 25.857 140.562 25.109C139.792 24.339 139.407 23.294 139.407 21.974C139.407 21.622 140.001 16.397 141.189 6.299C141.497 3.703 142.322 2.064 143.664 1.382C144.28 1.052 145.017 0.886999 145.875 0.886999C148.779 0.886999 150.231 2.229 150.231 4.913C150.231 5.133 150.22 5.364 150.198 5.606C149.978 8.554 148.13 11.557 144.654 14.615C144.544 15.693 144.423 16.738 144.291 17.75C144.027 20.016 143.895 21.27 143.895 21.512C143.895 22.656 144.39 23.228 145.38 23.228C146.458 23.228 147.459 22.612 148.383 21.38C149.329 20.126 150.055 18.531 150.561 16.595C150.759 16.661 151.034 16.848 151.386 17.156C151.738 17.442 151.98 17.695 152.112 17.915C151.76 19.741 150.968 21.49 149.736 23.162C149.12 24.02 148.339 24.724 147.393 25.274C146.315 25.912 145.094 26.231 143.73 26.231ZM145.017 11.315C147.041 9.093 148.053 7.102 148.053 5.342C148.053 4.286 147.657 3.758 146.865 3.758C146.359 3.802 146.018 4.132 145.842 4.748C145.688 5.364 145.534 6.365 145.38 7.751C145.248 9.137 145.16 9.995 145.116 10.325L145.017 11.315ZM155.533 18.608C156.897 18.322 157.909 17.772 158.569 16.958C159.251 16.144 159.592 15.363 159.592 14.615C159.592 13.845 159.383 13.328 158.965 13.064C158.569 12.778 158.129 12.635 157.645 12.635C156.611 12.635 155.698 13.218 154.906 14.384C154.136 15.528 153.751 16.903 153.751 18.509C153.751 20.093 154.125 21.281 154.873 22.073C155.643 22.843 156.589 23.228 157.711 23.228C159.361 23.228 160.945 22.656 162.463 21.512C163.981 20.368 165.213 18.872 166.159 17.024C166.643 17.486 167.083 18.058 167.479 18.74C166.753 20.39 165.466 22.007 163.618 23.591C162.694 24.361 161.594 24.988 160.318 25.472C159.064 25.956 157.766 26.198 156.424 26.198C154.224 26.198 152.486 25.527 151.21 24.185C149.846 22.733 149.164 20.874 149.164 18.608C149.164 16.342 150.011 14.362 151.705 12.668C153.421 10.974 155.467 10.127 157.843 10.127C159.537 10.127 160.912 10.501 161.968 11.249C163.024 11.975 163.563 12.965 163.585 14.219C163.585 15.913 162.903 17.288 161.539 18.344C160.197 19.4 158.349 20.137 155.995 20.555L155.533 18.608Z" fill="#EC2B2B"/>
</svg>
