<svg width="171" height="26" viewBox="0 0 171 26" fill="none" xmlns="http://www.w3.org/2000/svg">
<path d="M19.5266 19.588C19.5266 20.732 19.7796 21.304 20.2856 21.304C20.8356 21.304 21.7926 20.622 23.1566 19.258C23.5086 18.906 23.8826 18.477 24.2786 17.971C24.6746 17.465 24.9826 17.212 25.2026 17.212C25.6426 17.212 25.8626 17.608 25.8626 18.4C25.8846 19.17 25.6646 19.951 25.2026 20.743C24.7406 21.513 24.1356 22.228 23.3876 22.888C22.6616 23.526 21.8476 24.054 20.9456 24.472C20.0436 24.89 19.1636 25.099 18.3056 25.099C17.0076 25.099 16.1056 24.78 15.5996 24.142C15.1156 23.482 14.8736 22.723 14.8736 21.865C14.8736 21.007 14.9506 20.16 15.1046 19.324C15.3686 18.004 16.1386 15.452 17.4146 11.668C18.0086 9.864 18.3056 8.511 18.3056 7.609C18.3056 6.707 18.1296 5.992 17.7776 5.464C17.4476 4.936 16.9306 4.672 16.2266 4.672C15.5446 4.672 14.8736 4.914 14.2136 5.398C13.5536 5.86 12.9376 6.476 12.3656 7.246C11.3316 8.588 10.4076 10.348 9.59364 12.526C8.80164 14.682 8.28464 16.552 8.04264 18.136C8.46064 20.16 8.66964 21.48 8.66964 22.096C8.66964 23.372 8.21864 24.23 7.31664 24.67C6.89864 24.868 6.49164 25.055 6.09564 25.231C5.72164 25.407 5.31464 25.495 4.87464 25.495C3.77464 25.495 3.22464 24.45 3.22464 22.36C3.22464 20.248 3.80764 16.134 4.97364 10.018C5.39164 7.818 5.60064 6.586 5.60064 6.322C5.60064 4.54 5.14964 3.649 4.24764 3.649C3.93964 3.649 3.65364 3.737 3.38964 3.913C3.14764 4.089 2.89464 4.276 2.63064 4.474C2.38864 4.672 2.13564 4.859 1.87164 5.035C1.60764 5.211 1.29964 5.299 0.947637 5.299C0.617637 5.299 0.452637 5.002 0.452637 4.408C0.452637 3.198 1.01364 2.208 2.13564 1.438C3.21364 0.645998 4.52264 0.249998 6.06264 0.249998C8.21864 0.249998 9.42864 1.306 9.69264 3.418C9.78064 4.034 9.81364 4.705 9.79164 5.431V5.662C10.6276 4.056 11.6286 2.747 12.7946 1.735C13.9826 0.700999 15.3576 0.183999 16.9196 0.183999C19.0756 0.183999 20.6376 0.755999 21.6056 1.9C23.6296 4.342 23.5306 8.368 21.3086 13.978C20.8686 15.122 20.4616 16.178 20.0876 17.146C19.7136 18.114 19.5266 18.928 19.5266 19.588ZM37.591 22.195C35.853 24.241 33.763 25.264 31.321 25.264C28.901 25.264 27.086 24.648 25.876 23.416C24.666 22.162 24.072 20.611 24.094 18.763C24.072 16.145 24.897 13.89 26.569 11.998C28.241 10.106 30.43 9.16 33.136 9.16C34.368 9.16 35.358 9.314 36.106 9.622C37.404 10.15 38.053 10.645 38.053 11.107C38.053 11.459 37.14 11.646 35.314 11.668C33.51 11.668 31.992 12.295 30.76 13.549C29.55 14.781 28.945 16.343 28.945 18.235C28.945 19.225 29.231 20.061 29.803 20.743C30.397 21.403 31.222 21.733 32.278 21.733C33.356 21.733 34.247 21.513 34.951 21.073C33.389 20.017 32.608 18.488 32.608 16.486C32.586 15.43 32.96 14.473 33.73 13.615C34.522 12.735 35.523 12.295 36.733 12.295C37.965 12.273 38.845 12.603 39.373 13.285C39.901 13.967 40.165 14.847 40.165 15.925C40.165 16.981 39.912 18.103 39.406 19.291H39.604C40.572 19.269 41.408 18.928 42.112 18.268C42.376 18.004 42.596 17.773 42.772 17.575C42.97 17.377 43.168 17.278 43.366 17.278C43.674 17.278 43.828 17.641 43.828 18.367C43.828 19.709 43.432 20.721 42.64 21.403C41.848 22.063 40.968 22.393 40 22.393C39.054 22.393 38.251 22.327 37.591 22.195ZM37.294 18.367C37.668 17.575 37.855 16.805 37.855 16.057C37.855 15.309 37.613 14.935 37.129 14.935C36.931 14.935 36.766 15.078 36.634 15.364C36.502 15.65 36.436 15.925 36.436 16.189C36.436 17.069 36.722 17.795 37.294 18.367ZM60.261 14.968C60.261 14.242 59.843 13.879 59.007 13.879C58.435 13.879 57.797 14.44 57.093 15.562C56.389 16.662 55.883 17.85 55.575 19.126V19.192C55.575 19.94 55.685 20.71 55.905 21.502C56.147 22.294 56.268 22.844 56.268 23.152C56.268 23.9 55.333 24.637 53.463 25.363C53.177 25.473 52.924 25.528 52.704 25.528C52.154 25.528 51.769 25.242 51.549 24.67C51.351 24.098 51.252 23.328 51.252 22.36C51.252 21.37 51.274 20.446 51.318 19.588C51.384 18.708 51.439 17.905 51.483 17.179C51.549 16.431 51.604 15.782 51.648 15.232C51.714 14.66 51.747 14.198 51.747 13.846C51.747 13.098 51.406 12.724 50.724 12.724C50.042 12.724 49.25 13.527 48.348 15.133C47.446 16.717 46.995 17.982 46.995 18.928C46.995 19.852 47.105 20.71 47.325 21.502C47.567 22.294 47.688 22.844 47.688 23.152C47.688 23.9 46.753 24.637 44.883 25.363C44.597 25.473 44.344 25.528 44.124 25.528C43.574 25.528 43.189 25.242 42.969 24.67C42.771 24.098 42.672 23.218 42.672 22.03C42.672 18.906 42.793 16.651 43.035 15.265C43.365 13.219 44.113 11.283 45.279 9.457C45.675 8.841 46.104 8.533 46.566 8.533C47.292 8.533 47.963 9.127 48.579 10.315C48.755 10.623 48.887 10.909 48.975 11.173C50.031 9.853 51.274 9.193 52.704 9.193C53.65 9.193 54.497 9.512 55.245 10.15C55.993 10.766 56.367 11.547 56.367 12.493V12.856C57.709 11.184 59.348 10.348 61.284 10.348C62.472 10.348 63.374 10.656 63.99 11.272C64.606 11.888 64.914 12.647 64.914 13.549C64.914 14.451 64.848 15.265 64.716 15.991C64.584 16.717 64.43 17.399 64.254 18.037C64.1 18.675 63.957 19.247 63.825 19.753C63.693 20.237 63.627 20.622 63.627 20.908C63.627 21.172 63.715 21.304 63.891 21.304C64.221 21.304 64.628 21.095 65.112 20.677C65.596 20.259 66.08 19.808 66.564 19.324C67.048 18.818 67.488 18.356 67.884 17.938C68.302 17.52 68.588 17.311 68.742 17.311C69.05 17.311 69.204 17.685 69.204 18.433C69.204 19.973 68.423 21.469 66.861 22.921C65.321 24.373 63.671 25.099 61.911 25.099C60.327 25.099 59.535 23.658 59.535 20.776C59.535 20.05 59.656 19.049 59.898 17.773C60.14 16.497 60.261 15.562 60.261 14.968ZM87.8013 17.212C88.1973 17.212 88.3953 17.718 88.3953 18.73C88.3953 19.28 88.1643 19.951 87.7023 20.743C87.2403 21.513 86.6353 22.228 85.8873 22.888C85.1613 23.526 84.3473 24.054 83.4453 24.472C82.5433 24.89 81.6633 25.099 80.8053 25.099C79.6393 25.099 78.8583 24.076 78.4623 22.03C77.8903 22.976 77.1423 23.757 76.2183 24.373C75.2943 24.967 74.0513 25.264 72.4893 25.264C70.9493 25.264 69.7063 24.78 68.7603 23.812C67.8143 22.844 67.3523 21.667 67.3743 20.281C67.3743 16.541 68.6173 13.593 71.1033 11.437C72.1593 10.535 73.1383 9.941 74.0403 9.655C74.9643 9.369 75.9323 9.226 76.9443 9.226C77.9563 9.226 78.7813 9.402 79.4193 9.754C79.7273 9.116 80.0793 8.797 80.4753 8.797C81.2453 8.797 81.9713 9.138 82.6533 9.82C83.3573 10.48 83.7093 11.107 83.7093 11.701C83.4013 12.427 82.9503 13.296 82.3563 14.308C82.1803 15.32 82.0923 16.739 82.0923 18.565C82.0923 20.391 82.3233 21.304 82.7853 21.304C83.3573 21.304 84.7433 20.16 86.9433 17.872C87.3393 17.432 87.6253 17.212 87.8013 17.212ZM72.2253 19.192C72.2253 20.886 72.8523 21.733 74.1063 21.733C75.4483 21.711 76.5593 20.996 77.4393 19.588C77.7473 19.104 78.0003 18.51 78.1983 17.806C78.1983 15.342 78.4183 13.23 78.8583 11.47C77.0763 11.822 75.5253 12.68 74.2053 14.044C72.8853 15.408 72.2253 17.124 72.2253 19.192ZM107.008 17.212C107.404 17.212 107.602 17.718 107.602 18.73C107.602 19.28 107.371 19.951 106.909 20.743C106.447 21.513 105.842 22.228 105.094 22.888C104.368 23.526 103.554 24.054 102.652 24.472C101.75 24.89 100.87 25.099 100.012 25.099C98.8023 25.099 98.0103 24.109 97.6363 22.129C96.3163 24.219 94.3583 25.264 91.7623 25.264C90.1783 25.264 88.9133 24.78 87.9673 23.812C87.0213 22.844 86.5593 21.667 86.5813 20.281C86.5813 16.541 87.8243 13.593 90.3103 11.437C92.0263 9.963 93.8083 9.226 95.6563 9.226C96.4923 9.226 97.1523 9.292 97.6363 9.424L98.3953 9.622C99.2973 5.376 100.342 2.538 101.53 1.108C101.926 0.623998 102.322 0.381998 102.718 0.381998C103.356 0.381998 103.95 0.821999 104.5 1.702C104.984 2.428 105.226 3.055 105.226 3.583C105.226 4.111 105.149 4.628 104.995 5.134C104.841 5.64 104.643 6.113 104.401 6.553C104.181 6.971 103.928 7.389 103.642 7.807C103.356 8.203 103.07 8.61 102.784 9.028C102.146 11.404 101.673 14.066 101.365 17.014C101.277 17.85 101.233 18.521 101.233 19.027C101.233 20.545 101.486 21.304 101.992 21.304C102.564 21.304 103.95 20.16 106.15 17.872C106.546 17.432 106.832 17.212 107.008 17.212ZM91.4323 19.192C91.4323 20.886 92.0593 21.733 93.3133 21.733C94.0613 21.733 94.8093 21.447 95.5573 20.875C96.3273 20.303 96.9213 19.346 97.3393 18.004C97.3833 16.024 97.6143 13.846 98.0323 11.47C96.2723 11.822 94.7323 12.68 93.4123 14.044C92.0923 15.408 91.4323 17.124 91.4323 19.192ZM126.215 17.212C126.611 17.212 126.809 17.718 126.809 18.73C126.809 19.28 126.578 19.951 126.116 20.743C125.654 21.513 125.049 22.228 124.301 22.888C123.575 23.526 122.761 24.054 121.859 24.472C120.957 24.89 120.077 25.099 119.219 25.099C118.053 25.099 117.272 24.076 116.876 22.03C116.304 22.976 115.556 23.757 114.632 24.373C113.708 24.967 112.465 25.264 110.903 25.264C109.363 25.264 108.12 24.78 107.174 23.812C106.228 22.844 105.766 21.667 105.788 20.281C105.788 16.541 107.031 13.593 109.517 11.437C110.573 10.535 111.552 9.941 112.454 9.655C113.378 9.369 114.346 9.226 115.358 9.226C116.37 9.226 117.195 9.402 117.833 9.754C118.141 9.116 118.493 8.797 118.889 8.797C119.659 8.797 120.385 9.138 121.067 9.82C121.771 10.48 122.123 11.107 122.123 11.701C121.815 12.427 121.364 13.296 120.77 14.308C120.594 15.32 120.506 16.739 120.506 18.565C120.506 20.391 120.737 21.304 121.199 21.304C121.771 21.304 123.157 20.16 125.357 17.872C125.753 17.432 126.039 17.212 126.215 17.212ZM110.639 19.192C110.639 20.886 111.266 21.733 112.52 21.733C113.862 21.711 114.973 20.996 115.853 19.588C116.161 19.104 116.414 18.51 116.612 17.806C116.612 15.342 116.832 13.23 117.272 11.47C115.49 11.822 113.939 12.68 112.619 14.044C111.299 15.408 110.639 17.124 110.639 19.192ZM127.932 9.49C126.304 8.786 125.49 8.104 125.49 7.444C125.49 7.092 125.633 6.927 125.919 6.949C126.315 6.949 126.766 7.048 127.272 7.246C127.778 7.422 128.295 7.565 128.823 7.675C130.627 4.265 132.673 2.032 134.961 0.975999C135.731 0.623999 136.501 0.436999 137.271 0.414998C138.789 0.414998 139.944 0.788998 140.736 1.537C141.55 2.263 141.957 3.154 141.957 4.21C141.957 6.102 140.934 7.565 138.888 8.599C137.216 9.435 134.939 9.952 132.057 10.15C131.023 12.702 130.506 15.441 130.506 18.367C130.506 20.545 131.012 21.81 132.024 22.162C132.728 22.404 133.256 22.415 133.608 22.195C133.96 21.953 134.235 21.645 134.433 21.271C134.631 20.875 134.73 20.303 134.73 19.555C134.752 18.807 134.543 18.18 134.103 17.674C133.685 17.146 133.278 16.662 132.882 16.222C133.08 15.496 133.366 14.891 133.74 14.407C134.444 13.461 135.049 12.988 135.555 12.988C136.061 12.988 136.468 13.164 136.776 13.516C137.106 13.868 137.37 14.308 137.568 14.836C137.766 15.364 137.92 15.936 138.03 16.552C138.162 17.168 138.305 17.74 138.459 18.268C138.613 18.796 138.8 19.236 139.02 19.588C139.262 19.94 139.57 20.116 139.944 20.116C140.34 20.116 140.692 19.973 141 19.687C141.308 19.379 141.583 19.049 141.825 18.697C142.067 18.345 142.287 18.026 142.485 17.74C142.683 17.432 142.881 17.278 143.079 17.278C143.299 17.278 143.508 17.454 143.706 17.806C143.926 18.158 144.036 18.488 144.036 18.796C144.036 19.5 143.684 20.336 142.98 21.304C142.298 22.272 141.418 22.756 140.34 22.756C139.262 22.734 138.426 22.503 137.832 22.063C137.458 22.987 136.82 23.757 135.918 24.373C135.016 24.989 133.729 25.297 132.057 25.297C130.407 25.297 128.988 24.868 127.8 24.01C126.37 22.976 125.655 21.37 125.655 19.192C125.655 16.09 126.414 12.856 127.932 9.49ZM138.327 4.804C138.305 4.034 138.019 3.649 137.469 3.649C136.941 3.649 136.248 4.056 135.39 4.87C134.532 5.684 133.707 6.817 132.915 8.269C135.313 7.851 136.952 7.114 137.832 6.058C138.14 5.662 138.305 5.244 138.327 4.804ZM149.567 25.099C146.421 25.121 144.276 23.944 143.132 21.568C142.736 20.732 142.538 19.687 142.538 18.433C142.538 17.157 142.648 15.804 142.868 14.374C143.308 11.514 144.155 8.874 145.409 6.454C146.047 5.222 146.762 4.166 147.554 3.286C149.292 1.35 151.228 0.392998 153.362 0.414998C154.308 0.414998 155.045 0.678998 155.573 1.207C156.123 1.713 156.398 2.45 156.398 3.418C156.398 4.386 156.112 5.365 155.54 6.355C154.968 7.323 154.231 8.335 153.329 9.391C152.449 10.425 151.47 11.514 150.392 12.658C149.314 13.802 148.258 15.045 147.224 16.387V17.707C147.224 18.939 147.488 19.841 148.016 20.413C148.544 20.985 149.16 21.271 149.864 21.271C151.756 21.271 153.428 20.336 154.88 18.466C155.474 17.696 155.925 17.311 156.233 17.311C156.541 17.311 156.695 17.685 156.695 18.433C156.695 19.181 156.486 19.951 156.068 20.743C155.672 21.513 155.144 22.228 154.484 22.888C153.824 23.526 153.065 24.054 152.207 24.472C151.349 24.89 150.469 25.099 149.567 25.099ZM151.349 7.378C151.811 6.806 152.174 6.289 152.438 5.827C152.702 5.365 152.834 4.892 152.834 4.408C152.834 3.902 152.658 3.649 152.306 3.649C151.536 3.649 150.678 4.441 149.732 6.025C148.808 7.609 148.115 9.688 147.653 12.262C148.401 11.118 149.083 10.161 149.699 9.391C150.337 8.621 150.887 7.95 151.349 7.378ZM162.433 21.403C164.149 21.403 165.81 20.721 167.416 19.357C168.01 18.851 168.494 18.389 168.868 17.971C169.242 17.531 169.528 17.311 169.726 17.311C170.034 17.311 170.188 17.619 170.188 18.235C170.188 18.851 170.023 19.544 169.693 20.314C169.363 21.062 168.813 21.799 168.043 22.525C166.151 24.307 163.555 25.198 160.255 25.198C157.637 25.198 155.855 24.252 154.909 22.36C154.579 21.7 154.414 20.754 154.414 19.522C154.414 18.29 154.656 17.014 155.14 15.694C155.624 14.352 156.262 13.197 157.054 12.229C157.868 11.261 158.803 10.513 159.859 9.985C160.915 9.435 162.037 9.16 163.225 9.16C164.435 9.16 165.359 9.457 165.997 10.051C166.657 10.645 166.987 11.415 166.987 12.361C166.987 13.307 166.745 14.088 166.261 14.704C165.799 15.298 165.194 15.804 164.446 16.222C163.698 16.618 162.862 16.981 161.938 17.311C161.036 17.619 160.145 17.971 159.265 18.367V19.192C159.287 19.984 159.617 20.545 160.255 20.875C160.893 21.205 161.619 21.381 162.433 21.403ZM161.872 12.097C160.728 12.097 159.936 13.428 159.496 16.09C159.958 15.782 160.387 15.507 160.783 15.265C161.201 15.023 161.564 14.792 161.872 14.572C162.532 14.088 162.873 13.538 162.895 12.922C162.895 12.372 162.554 12.097 161.872 12.097Z" fill="#EC2B2B"/>
</svg>
