<svg width="190" height="33" viewBox="0 0 190 33" fill="none" xmlns="http://www.w3.org/2000/svg">
<path d="M10.3984 3.23C8.49438 3.902 7.03838 4.966 6.03038 6.422C5.05038 7.85 4.56038 9.586 4.56038 11.63C4.56038 12.526 4.65838 13.352 4.85438 14.108C5.05038 14.836 5.33038 15.438 5.69438 15.914C3.90238 15.914 2.57238 15.55 1.70438 14.822C0.864383 14.066 0.444383 12.918 0.444383 11.378C0.444383 9.418 1.01838 7.598 2.16638 5.918C3.31438 4.21 4.86838 2.852 6.82838 1.844C8.78838 0.835999 10.9164 0.332 13.2124 0.332C13.8564 0.332 14.4164 0.373999 14.8924 0.457998C15.3684 0.541999 15.9144 0.695999 16.5304 0.92L21.5704 23.39L26.2744 0.583999H30.3484L23.5024 32H17.7064L12.8344 11.168L8.04638 32H4.05638L10.3984 3.23ZM34.3791 32.168C32.3071 32.168 30.6691 31.636 29.4651 30.572C28.2611 29.508 27.6591 27.828 27.6591 25.532C27.6591 23.628 28.0511 21.514 28.8351 19.19C29.6191 16.866 30.8791 14.864 32.6151 13.184C34.3511 11.476 36.5351 10.622 39.1671 10.622C42.7511 10.622 44.5431 12.862 44.5431 17.342V17.384C44.6271 17.412 44.7811 17.426 45.0051 17.426C45.9291 17.426 46.9931 17.188 48.1971 16.712C49.4011 16.208 50.4931 15.606 51.4731 14.906L51.8511 16.04C51.0391 16.908 49.9751 17.65 48.6591 18.266C47.3711 18.854 45.9571 19.274 44.4171 19.526C44.1931 22.074 43.6191 24.3 42.6951 26.204C41.7711 28.108 40.5811 29.578 39.1251 30.614C37.6691 31.65 36.0871 32.168 34.3791 32.168ZM36.0591 28.388C36.7311 28.388 37.4031 28.01 38.0751 27.254C38.7471 26.47 39.3351 25.42 39.8391 24.104C40.3431 22.76 40.7071 21.276 40.9311 19.652C40.1751 19.484 39.7971 18.896 39.7971 17.888C39.7971 16.74 40.2311 15.984 41.0991 15.62C41.0431 14.696 40.9031 14.066 40.6791 13.73C40.4551 13.366 40.0631 13.184 39.5031 13.184C38.5791 13.184 37.6831 13.856 36.8151 15.2C35.9471 16.544 35.2471 18.154 34.7151 20.03C34.1831 21.906 33.9171 23.558 33.9171 24.986C33.9171 26.33 34.0711 27.24 34.3791 27.716C34.6871 28.164 35.2471 28.388 36.0591 28.388ZM72.2401 32.252C70.5321 32.252 69.2721 31.804 68.4601 30.908C67.6761 29.984 67.2841 28.85 67.2841 27.506C67.2841 26.918 67.3541 26.26 67.4941 25.532C67.6341 24.776 67.7741 24.048 67.9141 23.348C68.0821 22.648 68.1941 22.2 68.2501 22.004C68.4741 21.024 68.6841 20.058 68.8801 19.106C69.0761 18.154 69.1741 17.384 69.1741 16.796C69.1741 15.368 68.6701 14.654 67.6621 14.654C66.9341 14.654 66.2901 15.018 65.7301 15.746C65.1701 16.446 64.7221 17.37 64.3861 18.518L61.5301 32H55.4821L58.5481 17.51C58.6321 17.174 58.6741 16.824 58.6741 16.46C58.6741 15.228 58.2541 14.612 57.4141 14.612C56.6301 14.612 55.9441 14.976 55.3561 15.704C54.7961 16.404 54.3481 17.342 54.0121 18.518L51.1561 32H45.1081L49.5601 11H55.6081L55.1461 13.184C56.5741 11.588 58.2821 10.79 60.2701 10.79C62.7341 10.79 64.1761 11.994 64.5961 14.402C66.1361 12.022 68.0821 10.832 70.4341 10.832C71.8621 10.832 72.9961 11.224 73.8361 12.008C74.6761 12.792 75.0961 13.982 75.0961 15.578C75.0961 16.39 74.9981 17.3 74.8021 18.308C74.6061 19.288 74.3261 20.492 73.9621 21.92C73.7381 22.788 73.5281 23.642 73.3321 24.482C73.1641 25.294 73.0801 25.938 73.0801 26.414C73.0801 26.974 73.2061 27.408 73.4581 27.716C73.7101 28.024 74.1441 28.178 74.7601 28.178C75.6001 28.178 76.2721 27.884 76.7761 27.296C77.2801 26.68 77.7841 25.742 78.2881 24.482H80.0521C79.0161 27.562 77.8121 29.634 76.4401 30.698C75.0961 31.734 73.6961 32.252 72.2401 32.252ZM83.3261 32.252C81.7301 32.252 80.4001 31.706 79.3361 30.614C78.2721 29.522 77.7401 27.814 77.7401 25.49C77.7401 23.418 78.1461 21.248 78.9581 18.98C79.7981 16.684 81.0301 14.752 82.6541 13.184C84.3061 11.588 86.2661 10.79 88.5341 10.79C89.6821 10.79 90.5361 10.986 91.0961 11.378C91.6561 11.77 91.9361 12.288 91.9361 12.932V13.226L92.3981 11H98.4461L95.4221 25.28C95.3101 25.7 95.2541 26.148 95.2541 26.624C95.2541 27.828 95.8281 28.43 96.9761 28.43C97.7601 28.43 98.4321 28.066 98.9921 27.338C99.5801 26.61 100.042 25.658 100.378 24.482H102.142C101.106 27.506 99.8181 29.564 98.2781 30.656C96.7661 31.72 95.2401 32.252 93.7001 32.252C92.5241 32.252 91.5721 31.93 90.8441 31.286C90.1441 30.614 89.7241 29.648 89.5841 28.388C88.7721 29.536 87.8621 30.474 86.8541 31.202C85.8741 31.902 84.6981 32.252 83.3261 32.252ZM86.0561 28.178C86.7561 28.178 87.4421 27.856 88.1141 27.212C88.8141 26.54 89.2901 25.63 89.5421 24.482L91.5581 14.99C91.5581 14.626 91.4181 14.276 91.1381 13.94C90.8581 13.576 90.4241 13.394 89.8361 13.394C88.7161 13.394 87.7081 14.052 86.8121 15.368C85.9161 16.656 85.2161 18.224 84.7121 20.072C84.2081 21.892 83.9561 23.502 83.9561 24.902C83.9561 26.302 84.1521 27.198 84.5441 27.59C84.9641 27.982 85.4681 28.178 86.0561 28.178ZM105.434 32.252C103.838 32.252 102.508 31.706 101.444 30.614C100.38 29.522 99.8476 27.814 99.8476 25.49C99.8476 23.418 100.254 21.248 101.066 18.98C101.906 16.684 103.138 14.752 104.762 13.184C106.414 11.588 108.374 10.79 110.642 10.79C111.79 10.79 112.644 10.986 113.204 11.378C113.764 11.77 114.044 12.288 114.044 12.932V13.1L116.102 3.44L122.318 2.6L117.488 25.28C117.376 25.7 117.32 26.148 117.32 26.624C117.32 27.184 117.446 27.59 117.698 27.842C117.978 28.066 118.426 28.178 119.042 28.178C119.826 28.178 120.498 27.842 121.058 27.17C121.646 26.498 122.108 25.602 122.444 24.482H124.208C122.5 29.494 119.686 32 115.766 32C114.618 32 113.68 31.692 112.952 31.076C112.252 30.46 111.818 29.564 111.65 28.388C110.922 29.508 110.04 30.432 109.004 31.16C107.996 31.888 106.806 32.252 105.434 32.252ZM108.164 28.178C108.836 28.178 109.508 27.87 110.18 27.254C110.88 26.638 111.356 25.784 111.608 24.692V24.482L113.666 14.864C113.414 13.884 112.84 13.394 111.944 13.394C110.824 13.394 109.816 14.052 108.92 15.368C108.024 16.656 107.324 18.224 106.82 20.072C106.316 21.892 106.064 23.502 106.064 24.902C106.064 26.302 106.26 27.198 106.652 27.59C107.072 27.982 107.576 28.178 108.164 28.178ZM127.5 32.252C125.904 32.252 124.574 31.706 123.51 30.614C122.446 29.522 121.914 27.814 121.914 25.49C121.914 23.418 122.32 21.248 123.132 18.98C123.972 16.684 125.204 14.752 126.828 13.184C128.48 11.588 130.44 10.79 132.708 10.79C133.856 10.79 134.71 10.986 135.27 11.378C135.83 11.77 136.11 12.288 136.11 12.932V13.226L136.572 11H142.62L139.596 25.28C139.484 25.7 139.428 26.148 139.428 26.624C139.428 27.828 140.002 28.43 141.15 28.43C141.934 28.43 142.606 28.066 143.166 27.338C143.754 26.61 144.216 25.658 144.552 24.482H146.316C145.28 27.506 143.992 29.564 142.452 30.656C140.94 31.72 139.414 32.252 137.874 32.252C136.698 32.252 135.746 31.93 135.018 31.286C134.318 30.614 133.898 29.648 133.758 28.388C132.946 29.536 132.036 30.474 131.028 31.202C130.048 31.902 128.872 32.252 127.5 32.252ZM130.23 28.178C130.93 28.178 131.616 27.856 132.288 27.212C132.988 26.54 133.464 25.63 133.716 24.482L135.732 14.99C135.732 14.626 135.592 14.276 135.312 13.94C135.032 13.576 134.598 13.394 134.01 13.394C132.89 13.394 131.882 14.052 130.986 15.368C130.09 16.656 129.39 18.224 128.886 20.072C128.382 21.892 128.13 23.502 128.13 24.902C128.13 26.302 128.326 27.198 128.718 27.59C129.138 27.982 129.642 28.178 130.23 28.178ZM150.153 32.252C148.249 32.252 146.793 31.79 145.785 30.866C144.777 29.914 144.273 28.584 144.273 26.876C144.273 26.036 144.371 25.238 144.567 24.482L149.061 3.44L155.277 2.6L153.261 12.05C154.045 11.574 154.689 11.266 155.193 11.126C155.697 10.958 156.201 10.874 156.705 10.874C160.009 10.874 161.661 13.268 161.661 18.056C161.661 19.988 161.283 22.06 160.527 24.272C159.799 26.456 158.567 28.332 156.831 29.9C155.123 31.468 152.897 32.252 150.153 32.252ZM152.505 28.178C153.373 28.178 154.185 27.646 154.941 26.582C155.697 25.49 156.299 24.146 156.747 22.55C157.195 20.926 157.419 19.372 157.419 17.888C157.419 16.768 157.223 15.816 156.831 15.032C156.439 14.248 155.893 13.856 155.193 13.856C154.773 13.856 154.297 13.926 153.765 14.066C153.261 14.178 152.911 14.36 152.715 14.612L150.405 25.28C150.321 25.616 150.279 25.938 150.279 26.246C150.279 27.534 151.021 28.178 152.505 28.178ZM167.387 32.252C166.043 32.252 164.951 31.832 164.111 30.992C163.299 30.152 162.893 28.892 162.893 27.212C162.893 26.512 163.005 25.602 163.229 24.482L167.723 3.44L173.939 2.6L169.109 25.28C168.997 25.7 168.941 26.148 168.941 26.624C168.941 27.184 169.067 27.59 169.319 27.842C169.599 28.066 170.047 28.178 170.663 28.178C171.475 28.178 172.231 27.842 172.931 27.17C173.631 26.47 174.135 25.574 174.443 24.482H176.207C175.171 27.506 173.841 29.564 172.217 30.656C170.593 31.72 168.983 32.252 167.387 32.252ZM180.349 32.252C178.305 32.252 176.709 31.72 175.561 30.656C174.413 29.564 173.839 27.87 173.839 25.574C173.839 23.642 174.217 21.514 174.973 19.19C175.729 16.866 176.961 14.864 178.669 13.184C180.377 11.476 182.547 10.622 185.179 10.622C188.259 10.622 189.799 11.966 189.799 14.654C189.799 16.222 189.351 17.664 188.455 18.98C187.559 20.296 186.369 21.36 184.885 22.172C183.401 22.956 181.819 23.404 180.139 23.516C180.083 24.132 180.055 24.552 180.055 24.776C180.055 27.1 180.923 28.262 182.659 28.262C183.443 28.262 184.283 28.052 185.179 27.632C186.075 27.212 186.887 26.68 187.615 26.036C186.859 30.18 184.437 32.252 180.349 32.252ZM180.433 21.5C181.497 21.472 182.491 21.122 183.415 20.45C184.367 19.778 185.123 18.924 185.683 17.888C186.271 16.824 186.565 15.718 186.565 14.57C186.565 13.422 186.215 12.848 185.515 12.848C184.535 12.848 183.555 13.744 182.575 15.536C181.623 17.3 180.909 19.288 180.433 21.5Z" fill="#EC2B2B"/>
</svg>
